<svg width="307" height="86" viewBox="0 0 307 86" fill="none" xmlns="http://www.w3.org/2000/svg">
<path d="M300.437 0C303.714 0.000128768 306.468 2.52669 306.468 5.75879V79.5215C306.468 82.7536 303.714 85.2801 300.437 85.2803H6.03125C2.75351 85.2803 1.73327e-05 82.7537 0 79.5215V5.75879C5.90332e-05 2.52661 2.75353 0 6.03125 0H300.437ZM6.03125 2C3.75182 2 2.00006 3.73454 2 5.75879V79.5215C2.00002 81.5458 3.7518 83.2803 6.03125 83.2803H300.437C302.716 83.2801 304.468 81.5457 304.468 79.5215V5.75879C304.468 3.73461 302.716 2.00013 300.437 2H6.03125ZM138.77 44.4551C141.215 44.4552 143.253 45.3779 144.884 47.2227C146.513 49.0676 147.33 51.5014 147.33 54.502C147.33 57.8583 146.375 60.5147 144.465 62.4707C142.752 64.2044 140.621 65.0713 138.082 65.0713C135.334 65.0712 133.366 64.1375 132.167 62.2705V72.6396H127.566V51.3564C127.566 49.2449 127.508 47.0778 127.392 44.8662H131.444L131.701 48H131.781C133.319 45.6439 135.649 44.4551 138.77 44.4551ZM162.597 44.4551C165.043 44.4551 167.08 45.3778 168.71 47.2227C170.33 49.0676 171.156 51.5013 171.156 54.502C171.156 57.8583 170.202 60.5147 168.291 62.4707C166.58 64.2043 164.449 65.0712 161.91 65.0713C159.162 65.0713 157.192 64.1376 155.993 62.2705V72.6396H151.393V51.3564C151.393 49.245 151.336 47.0777 151.219 44.8662H155.271L155.527 48H155.609C157.146 45.644 159.475 44.4551 162.597 44.4551ZM57.6143 27.8721C59.7626 27.8721 63.8407 25.012 68.0566 25.4365C69.8242 25.4813 74.8363 26.1074 78.0703 30.666C77.8004 30.8137 72.0999 34.0654 72.1572 40.7334C72.2265 48.7173 79.3773 51.3683 79.4795 51.4277C79.4317 51.6119 78.3571 55.2404 75.668 58.9248C73.4272 62.1652 71.0707 65.3386 67.3398 65.3945C63.7133 65.4726 62.4889 63.3282 58.3311 63.3281C54.1382 63.3281 52.8321 65.3386 49.3555 65.4727C45.7981 65.5953 43.0842 62.009 40.7627 58.791C36.1078 52.2206 32.4915 40.2866 37.3428 32.1631C39.6875 28.1852 43.9731 25.6149 48.5586 25.5479C52.1275 25.4808 55.4311 27.8718 57.6143 27.8721ZM225.926 44.4775C228.966 44.4775 231.412 45.4445 233.251 47.3672C234.997 49.2231 235.883 51.6347 235.883 54.5908C235.883 57.6248 234.975 60.1255 233.158 62.0703C231.26 64.0817 228.734 65.082 225.577 65.082C222.537 65.082 220.115 64.1147 218.31 62.2031C216.505 60.2804 215.608 57.8467 215.608 54.9238C215.608 51.8567 216.54 49.3563 218.403 47.4004C220.267 45.4444 222.77 44.4776 225.926 44.4775ZM190.209 36.8193C192.818 36.8194 194.995 37.2533 196.73 38.1201L195.578 41.6992C193.947 40.8546 192.118 40.4424 190.057 40.4424C188.438 40.4424 187.158 40.8207 186.249 41.5762C185.481 42.2541 185.096 43.0768 185.096 44.0547C185.096 45.1326 185.54 46.0333 186.425 46.7334C187.193 47.378 188.578 48.0891 190.593 48.8447C193.061 49.8004 194.879 50.9005 196.044 52.1787C197.208 53.4567 197.79 55.0461 197.79 56.9463C197.79 59.2801 196.94 61.1809 195.24 62.6367C193.377 64.2371 190.756 65.0371 187.414 65.0371C184.328 65.0371 181.848 64.471 179.972 63.3262L181.031 59.6699C183.046 60.8146 185.271 61.3809 187.682 61.3809C189.417 61.3808 190.768 61.0034 191.734 60.2588C192.701 59.5143 193.189 58.5141 193.189 57.2695C193.189 56.1581 192.783 55.2239 191.99 54.457C191.198 53.7014 189.882 52.9902 188.031 52.3457C183 50.5564 180.484 47.933 180.484 44.499C180.484 42.2542 181.37 40.4092 183.151 38.9756C184.922 37.542 187.275 36.8193 190.209 36.8193ZM207.98 44.877H213.057L213.046 48.167H207.968V57.7578C207.968 60.2028 208.865 61.4141 210.659 61.4141C211.485 61.414 212.161 61.3482 212.708 61.2148L212.836 64.5488C211.928 64.8711 210.741 65.0371 209.262 65.0371C207.445 65.0371 206.024 64.5039 204.999 63.4482C203.974 62.3924 203.462 60.6143 203.462 58.125V48.167H200.446V44.877H203.462V41.2539L207.98 39.9541V44.877ZM262.832 44.4326C265.813 44.4326 268.071 45.4889 269.609 47.6006C270.808 49.2787 271.427 51.3453 271.427 53.8125C271.438 54.4792 271.379 55.1462 271.264 55.8018H257.452C257.499 57.7578 258.173 59.2476 259.454 60.2812C260.618 61.2037 262.122 61.6592 263.974 61.6592C266.023 61.6591 267.886 61.3479 269.563 60.7256L270.285 63.7705C268.328 64.5818 266.011 64.9932 263.344 64.9932C260.13 64.9931 257.614 64.093 255.774 62.293C253.946 60.4925 253.025 58.0693 253.025 55.0352C253.025 52.0569 253.876 49.5787 255.588 47.6006C257.37 45.4889 259.792 44.4326 262.832 44.4326ZM123.595 64.626H118.692L116.002 56.5801H106.674L104.112 64.626H99.3369L108.584 37.2197H114.29L123.595 64.626ZM249.694 44.4551C250.126 44.4551 250.498 44.4887 250.849 44.5332V48.7334C250.37 48.6556 249.881 48.6113 249.392 48.6113C247.773 48.6114 246.528 49.1895 245.643 50.3564C244.874 51.3898 244.49 52.69 244.49 54.2568V64.626H239.89V51.0898C239.89 49.0116 239.855 46.9444 239.762 44.8662H243.768L243.93 48.6445H244.058C244.547 47.3443 245.305 46.2998 246.364 45.5107C247.318 44.8217 248.495 44.4551 249.694 44.4551ZM225.74 47.6777C223.9 47.6777 222.479 48.4671 221.523 50.0342C220.697 51.3343 220.289 52.9124 220.289 54.7793C220.289 56.5907 220.697 58.147 221.523 59.4473C222.514 61.0142 223.912 61.8037 225.705 61.8037C227.464 61.8036 228.838 61.0032 229.84 59.4141C230.69 58.0693 231.109 56.5019 231.109 54.6904C231.109 52.879 230.7 51.3233 229.873 50.0342C228.908 48.4672 227.533 47.6778 225.74 47.6777ZM137.278 47.9668C136.15 47.9669 135.113 48.3337 134.192 49.0449C133.273 49.7673 132.666 50.7125 132.388 51.8682C132.26 52.3015 132.19 52.7569 132.179 53.2012V56.502C132.179 57.9356 132.644 59.1472 133.564 60.1475C134.484 61.1366 135.684 61.6367 137.162 61.6367C138.897 61.6367 140.248 60.9923 141.215 59.7256C142.158 58.4364 142.647 56.7574 142.647 54.668C142.647 52.7456 142.193 51.1567 141.285 49.9121C140.294 48.6118 138.956 47.9668 137.278 47.9668ZM161.095 47.9668C159.965 47.9669 158.928 48.3337 157.996 49.0449C157.077 49.7673 156.471 50.7125 156.192 51.8682C156.052 52.4125 155.971 52.8568 155.971 53.2012V56.502C155.971 57.9356 156.437 59.1472 157.355 60.1475C158.276 61.1366 159.475 61.6367 160.967 61.6367C162.701 61.6367 164.052 60.9923 165.019 59.7256C165.985 58.4364 166.463 56.7574 166.463 54.668C166.463 52.7457 166.009 51.1567 165.101 49.9121C164.111 48.6118 162.771 47.9668 161.095 47.9668ZM111.239 40.876C110.96 42.0429 110.494 43.7658 109.877 46.0439L107.489 53.2012H115.198L112.765 46.0439C112.508 45.3102 112.019 43.5874 111.32 40.876H111.239ZM262.471 47.4668C260.969 47.4668 259.746 48.0669 258.802 49.2559C258.033 50.2005 257.58 51.3454 257.439 52.668L267.036 52.6787C267.071 51.3788 266.768 50.2564 266.14 49.3008C265.347 48.0784 264.113 47.4669 262.471 47.4668ZM121.521 17.7754C124.456 17.7754 126.425 19.7885 126.425 22.7314C126.425 25.7519 124.398 27.8652 121.357 27.8652C118.387 27.8652 116.454 25.7521 116.454 22.8867C116.454 19.8994 118.422 17.7754 121.521 17.7754ZM169.766 17.7754C172.7 17.7754 174.67 19.7885 174.67 22.7314C174.67 25.7519 172.631 27.8651 169.603 27.8652C166.633 27.8652 164.698 25.7521 164.698 22.8867C164.698 19.8994 166.668 17.7754 169.766 17.7754ZM198.383 25.0332C198.383 25.9624 198.407 26.8474 198.465 27.6328H196.462V27.6436L196.357 26.0947H196.299C195.647 27.2675 194.552 27.8651 193.026 27.8652C190.569 27.8652 188.751 25.8184 188.751 22.9307C188.751 19.9102 190.639 17.7754 193.212 17.7754C194.576 17.7754 195.541 18.2067 196.077 19.0918H196.124V13.5371H198.383V25.0332ZM212.921 17.7754C215.856 17.7755 217.823 19.7886 217.823 22.7314C217.823 25.7518 215.798 27.865 212.758 27.8652C209.788 27.8652 207.854 25.7521 207.854 22.8867C207.854 19.8994 209.822 17.7754 212.921 17.7754ZM181.495 17.7637C184.15 17.7637 185.501 19.0916 185.501 21.7578V25.3203C185.501 26.2939 185.548 27.0575 185.653 27.6328L183.591 27.6436L183.428 26.5264H183.37C182.683 27.4226 181.67 27.8545 180.389 27.8545C178.559 27.8545 177.267 26.6371 177.267 25.0107C177.267 22.621 179.444 21.3926 183.218 21.3926V21.2158C183.218 19.9434 182.508 19.3018 181.11 19.3018C180.109 19.3018 179.223 19.545 178.455 20.0205L178 18.6045C178.944 18.0513 180.12 17.7637 181.495 17.7637ZM242.704 17.9629H245.196L245.208 19.5889H242.715V24.2803C242.715 25.4752 243.146 26.0732 244.031 26.0732C244.427 26.0732 244.765 26.029 245.033 25.9736L245.091 27.5996C244.649 27.7545 244.066 27.8428 243.333 27.8428C241.55 27.8428 240.479 26.9133 240.479 24.457V19.5781H238.987V17.9629H240.479V16.1924L242.704 15.5508V17.9629ZM265.3 17.7754C267.897 17.7754 269.528 19.6003 269.528 22.3662C269.551 22.676 269.528 23.0082 269.458 23.3291H262.668C262.714 25.1546 263.984 26.1943 265.871 26.1943C266.872 26.1943 267.804 26.04 268.619 25.7412L268.97 27.2344C268.003 27.6327 266.872 27.832 265.556 27.832C262.376 27.8319 260.49 25.9178 260.49 22.9639C260.49 19.9987 262.423 17.7754 265.3 17.7754ZM106.076 14.1348C111.352 14.1349 113.786 16.6021 113.786 20.6182C113.774 25.254 110.909 27.7656 105.481 27.7656C104.2 27.7656 103.094 27.7099 102.174 27.6104V14.4111C103.467 14.223 104.772 14.1237 106.076 14.1348ZM250.624 19.3457H250.671C251.382 18.2949 252.418 17.7755 253.733 17.7754C255.888 17.7754 257.205 19.368 257.205 21.8906L257.193 27.6436H254.933V22.1338C254.933 20.4081 254.246 19.5343 252.884 19.5342C251.707 19.5342 250.624 20.2864 250.624 21.8242V27.6553H248.363V13.5371H250.624V19.3457ZM132.131 22.5654C132.4 23.6607 132.632 24.6901 132.819 25.6748H132.866C133.029 24.856 133.308 23.8491 133.705 22.5879L135.148 17.9736H136.988L138.375 22.4883C138.713 23.5835 138.981 24.657 139.19 25.6748H139.248C139.4 24.6791 139.62 23.6277 139.936 22.4883L141.171 17.9736H143.383L140.203 27.6436H138.13L136.814 23.4502C136.488 22.4214 136.209 21.3819 135.999 20.3311H135.952C135.789 21.3818 135.474 22.4437 135.137 23.4502L133.738 27.6436H131.643L128.648 17.9736H130.979L132.131 22.5654ZM151.584 17.7754C153.715 17.7755 155.124 19.324 155.124 21.8574L155.112 27.6436H152.854V22.0898C152.854 20.375 152.165 19.5235 150.803 19.5234C149.464 19.5234 148.543 20.6183 148.543 21.8906V27.6436H146.284V20.7402C146.284 19.8884 146.26 18.9695 146.202 17.9736H148.194L148.299 19.4678H148.356C148.963 18.4389 150.198 17.7754 151.584 17.7754ZM161.344 27.6436H159.085V13.5371H161.344V27.6436ZM226.466 17.7754C228.598 17.7754 230.008 19.3239 230.008 21.8574V27.6436H227.735V22.0898C227.735 20.3751 227.049 19.5236 225.687 19.5234C224.347 19.5234 223.427 20.6183 223.427 21.8906V27.6436H221.166V20.7402C221.166 19.8884 221.144 18.9695 221.085 17.9736H223.076L223.182 19.4678H223.24C223.847 18.439 225.081 17.7754 226.466 17.7754ZM183.277 22.8311C180.761 22.8311 179.503 23.4064 179.503 24.7783C179.503 25.7962 180.155 26.2939 181.052 26.2939C182.206 26.2939 183.277 25.4645 183.277 24.3252V22.8311ZM121.439 19.3457C119.809 19.3457 118.76 20.7953 118.76 22.8311C118.76 24.8226 119.832 26.2715 121.416 26.2715C123.012 26.2713 124.071 24.7231 124.071 22.7871C124.083 20.818 123.035 19.346 121.439 19.3457ZM169.684 19.3457C168.052 19.3459 167.005 20.7955 167.005 22.8311C167.005 24.8226 168.077 26.2715 169.66 26.2715C171.256 26.2714 172.316 24.7231 172.316 22.7871C172.316 20.8178 171.28 19.3457 169.684 19.3457ZM212.839 19.3457C211.208 19.3458 210.159 20.7954 210.159 22.8311C210.159 24.8226 211.232 26.2715 212.815 26.2715C214.411 26.2713 215.472 24.7231 215.472 22.7871C215.483 20.8178 214.434 19.3457 212.839 19.3457ZM193.748 19.4453C192.07 19.4453 191.046 20.8616 191.046 22.8418C191.046 24.7889 192.105 26.1277 193.701 26.1279C195.121 26.1279 196.136 24.9555 196.136 23.5615V21.957C196.136 20.6072 195.192 19.4453 193.748 19.4453ZM106.262 15.8281C105.552 15.8281 104.946 15.8722 104.445 15.9717V25.9951C104.713 26.0393 105.237 26.0508 105.971 26.0508C109.43 26.0508 111.398 24.1808 111.398 20.6846C111.387 17.5536 109.605 15.8281 106.262 15.8281ZM68.1025 12.6426C68.4605 15.7712 67.1787 18.8441 65.3076 21.1123C63.3556 23.3358 60.2253 25.0344 57.1992 24.8223C56.7949 21.8164 58.3425 18.6205 60.0635 16.665C62.004 14.4525 65.3998 12.7543 68.1025 12.6426ZM265.149 19.2461C263.845 19.2461 262.819 20.3195 262.679 21.791H267.385C267.385 20.2975 266.593 19.2463 265.149 19.2461Z" fill="white"/>
</svg>
