<svg width="388" height="70" viewBox="0 0 388 70" fill="none" xmlns="http://www.w3.org/2000/svg">
<g clip-path="url(#clip0_920_5282)">
<mask id="mask0_920_5282" style="mask-type:luminance" maskUnits="userSpaceOnUse" x="0" y="0" width="388" height="70">
<path d="M388 0H0V70H388V0Z" fill="white"/>
</mask>
<g mask="url(#mask0_920_5282)">
<path d="M372.411 47.349C374.092 40.5407 373.079 33.3258 370.915 26.7493L375.999 26.607C378.451 34.811 379.131 43.796 376.092 51.944L388.062 66.9463C386.022 67.072 383.963 67.1315 381.922 67.0918C376.364 60.1448 370.784 53.2175 365.228 46.2673C360.938 40.898 356.745 35.4463 352.419 30.1035C348.922 25.7833 343.034 20.123 341.51 14.8697C339.487 7.89285 343.599 1.42546 350.834 0.257691C357.937 -0.886922 364.802 1.60741 366.4 9.08378C367.71 15.2138 364.195 19.3621 360.655 23.8248C359.486 25.2935 358.244 26.7063 357.088 28.185L372.411 47.3455V47.349ZM352.855 5.21328C346.572 5.76243 344.941 11.9519 347.972 16.7752C349.257 18.8196 351.298 21.218 352.905 23.0573C353.042 23.2161 353.87 24.1854 353.951 24.1622C355.77 21.9524 357.635 19.7591 359.159 17.3342C360.681 14.9094 361.608 13.0601 360.978 10.2218C360.091 6.23877 356.705 4.87253 352.85 5.20995L352.855 5.21328Z" fill="#38171A"/>
<path d="M350.774 34.4282C341.034 34.9244 335.03 45.4607 340.054 53.8964C344.954 62.1239 356.919 62.4779 362.293 54.5349C363.072 53.3872 363.397 52.3682 363.949 51.1442C363.979 51.0747 363.903 51.0152 364.065 51.0417L370.754 59.4344C367.335 64.9489 361.134 68.9089 354.622 69.7822C339.001 71.8794 326.005 58.5114 328.797 43.2112C330.137 35.8672 335.456 29.3964 342.415 26.5152C342.687 26.4027 343.934 25.8767 344.113 25.9694L350.774 34.4282Z" fill="#5500FF"/>
<path d="M60.7842 18.4525L53.085 21.5324C52.8232 21.4728 52.1754 19.6236 51.9741 19.2365C48.7018 13.0536 43.1572 9.5338 36.1258 8.72992C21.7174 7.08247 12.0145 14.5655 9.60467 28.4595C7.25531 41.9997 11.3667 58.868 26.9564 61.8883C37.0321 63.84 48.4164 60.436 52.4674 50.472L52.8837 50.3495L60.4822 53.4987C56.2902 62.7417 47.7016 68.316 37.6227 69.6393C17.1227 72.3288 2.13366 59.748 0.274291 39.7767C-1.9207 16.2063 13.1825 -2.15051 38.22 1.35611C48.3292 2.772 57.2635 8.85232 60.7842 18.4525Z" fill="#38171A"/>
<path d="M208.024 46.935C208.111 52.4 210.249 58.292 215.263 61.127C221.14 64.4515 230.292 63.5385 234.763 58.2985C236.26 56.5452 236.998 54.5272 237.757 52.3935H246.221C244.382 61.2062 238.21 67.591 229.178 69.3212C214.78 72.0802 202.66 65.1197 200.16 50.627C197.787 36.8782 203.345 22.8122 218.757 20.9795C231.729 19.4379 243.244 25.171 245.577 38.496C245.939 40.5635 246.322 44.391 246.08 46.4255C246.053 46.6407 246.06 46.806 245.849 46.935H208.027H208.024ZM237.532 40.8845C237.3 35.307 234.095 30.315 228.661 28.4492C224.318 26.9572 219.009 27.0962 214.964 29.349C210.873 31.6282 208.292 36.2895 208.175 40.8845H237.532Z" fill="#38171A"/>
<path d="M87.117 20.8576C103.922 19.6998 116.038 30.653 115.014 47.4582C114.018 63.7772 98.5819 72.534 83.103 69.1465C56.1791 63.2545 58.562 22.8227 87.117 20.8576ZM88.1641 28.0892C66.5029 29.644 67.8153 64.1047 91.1144 62.5765C102.952 61.799 108.513 50.8822 105.889 40.2002C103.845 31.877 96.6825 27.4772 88.1641 28.0892Z" fill="#38171A"/>
<path d="M167.134 68.9215H158.669L158.438 68.4122C157.995 58.779 159.052 48.5997 158.451 39.0327C157.907 30.3487 152.356 27.0042 143.882 28.2317C125.657 30.8715 130.44 55.8115 129.842 68.4122L129.611 68.9215H121.371L121.146 68.7V21.7014H129.832V33.9515L132.168 29.2405C136.461 22.2671 145.201 19.8852 153.085 21.0034C162.385 22.3233 166.694 29.9385 167.137 38.5895L167.131 68.9215H167.134Z" fill="#38171A"/>
<path d="M294 21.7017L276.774 45.2423L294 68.922H284.338L269.808 49.1525L255.507 68.6638L255.132 68.922H245.619L262.978 45.1133L245.619 21.7017H255.278L269.808 41.471L284.338 21.7017H294Z" fill="#38171A"/>
<path d="M308.076 21.7011H321.561V28.8598L321.334 29.0815H308.076V61.6963H321.561V68.7063L321.334 68.928H305.008C302.488 68.928 299.805 66.7943 299.581 64.2403C299.137 46.6213 299.525 28.936 299.382 11.2904C299.344 10.7942 299.858 10.6949 300.238 10.5097C302.71 9.29556 305.574 8.43876 308.076 7.24121V21.7044V21.7011Z" fill="#38171A"/>
<path d="M183.909 7.38329V21.6975H197.24V29.0747H183.909V61.6895H197.24V68.921H180.691C177.586 68.921 175.207 66.0165 175.227 63.0887L175.297 10.923C175.421 10.7774 175.606 10.7344 175.767 10.6484C177.344 9.81144 181.647 7.92581 183.308 7.45274C183.51 7.39321 183.701 7.35681 183.913 7.38329H183.909Z" fill="#38171A"/>
</g>
</g>
<defs>
<clipPath id="clip0_920_5282">
<rect width="388" height="70" fill="white"/>
</clipPath>
</defs>
</svg>
