<svg width="219" height="219" viewBox="0 0 219 219" fill="none" xmlns="http://www.w3.org/2000/svg">
<path d="M109.5 68.9631C110.003 68.9631 110.501 68.9826 111 68.9999V0H108V69C108.499 68.9826 108.997 68.9631 109.5 68.9631Z" fill="#3B1214"/>
<path d="M83 79.0177L36.1477 28L34 29.9871L80.8481 81C81.5398 80.312 82.2606 79.6545 83 79.0177Z" fill="white"/>
<path d="M94 71.8136L65.6747 9L63 10.188L91.3243 73C92.1986 72.5728 93.0905 72.1773 94 71.8136Z" fill="white"/>
<path d="M86 76.2586L45.3099 21L43 22.7384L83.6924 78C84.4402 77.3926 85.2094 76.8121 86 76.2586Z" fill="white"/>
<path d="M107 68.6967L99.1137 0L96 0.31032L103.886 69C104.912 68.8637 105.952 68.7648 107 68.6967Z" fill="white"/>
<path d="M102 69.3993L87.7972 2L85 2.61123L99.2005 70C100.121 69.7641 101.056 69.5686 102 69.3993Z" fill="white"/>
<path d="M98 71.0978L76.7462 5L74 5.9135L95.2502 72C96.1507 71.6634 97.0706 71.3691 98 71.0978Z" fill="white"/>
<path d="M90 73.5228L54.5283 15L52 16.4667L87.478 75C88.3006 74.4814 89.1381 73.9836 90 73.5228Z" fill="white"/>
<path d="M71 96.1537L5.8647 75L5 77.8454L70.1384 99C70.394 98.0369 70.6812 97.0881 71 96.1537Z" fill="white"/>
<path d="M80 81.8144L27.9421 36L26 38.1929L78.0497 84C78.6714 83.246 79.3264 82.5214 80 81.8144Z" fill="white"/>
<path d="M73 92.3327L9.17001 65L8 67.6641L71.8373 95C72.1959 94.0959 72.5784 93.2037 73 92.3327Z" fill="white"/>
<path d="M70 100.063L2.57673 86L2 88.9366L69.4236 103C69.5812 102.008 69.7753 101.03 70 100.063Z" fill="white"/>
<path d="M75 88.4205L14.4448 54L13 56.5772L73.5592 91C74.0115 90.1222 74.4881 89.2597 75 88.4205Z" fill="white"/>
<path d="M69 104.235L0.276607 98L0 100.766L68.7205 107C68.7774 106.068 68.8748 105.147 69 104.235Z" fill="white"/>
<path d="M77 84.6484L20.6932 45L19 47.354L75.3034 87C75.8406 86.195 76.4062 85.4112 77 84.6484Z" fill="white"/>
<path d="M142.738 87L199 46.3643L197.272 44L141 84.6435C141.604 85.4097 142.19 86.191 142.738 87Z" fill="#3B1214"/>
<path d="M147.903 98L214 76.7462L213.086 74L147 95.2501C147.337 96.1506 147.631 97.0705 147.903 98Z" fill="#3B1214"/>
<path d="M145.465 90L205 55.5131L203.541 53L144 87.4903C144.516 88.3084 145.008 89.1436 145.465 90Z" fill="#3B1214"/>
<path d="M147.186 94L210 65.6747L208.812 63L146 91.3245C146.427 92.1986 146.823 93.0904 147.186 94Z" fill="#3B1214"/>
<path d="M149.622 102L217 86.8701L216.366 84L149 99.1272C149.243 100.071 149.445 101.031 149.622 102Z" fill="#3B1214"/>
<path d="M150.047 109.813C150.047 110.211 150.029 110.604 150.02 111L219 110.251L218.972 107L150 107.749C150.028 108.434 150.047 109.121 150.047 109.813Z" fill="#3B1214"/>
<path d="M149.319 106L218 98.688L217.667 96L149 103.31C149.144 104.196 149.244 105.095 149.319 106Z" fill="#3B1214"/>
<path d="M137.193 80L184 28.9425L181.804 27L135 78.0539C135.756 78.6758 136.485 79.3268 137.193 80Z" fill="#3B1214"/>
<path d="M127.602 73L155 10.1823L152.399 9L125 71.8213C125.883 72.1846 126.752 72.5748 127.602 73Z" fill="#3B1214"/>
<path d="M123.766 71L145 5.89472L142.237 5L121 70.1172C121.935 70.3828 122.861 70.6703 123.766 71Z" fill="#3B1214"/>
<path d="M118.987 70L134 2.60534L131.015 2L116 69.4033C117.008 69.5706 118.005 69.7659 118.987 70Z" fill="#3B1214"/>
<path d="M134.357 78L175 21.7279L172.636 20L132 76.2615C132.809 76.8102 133.591 77.3956 134.357 78Z" fill="#3B1214"/>
<path d="M114.868 69L122 0.305456L119.133 0L112 68.7006C112.966 68.767 113.922 68.8668 114.868 69Z" fill="#3B1214"/>
<path d="M130.521 75L165 15.4529L162.476 14L128 73.5425C128.86 73.9982 129.7 74.484 130.521 75Z" fill="#3B1214"/>
<path d="M140.946 84L192 37.1963L190.058 35L139 81.807C139.673 82.5148 140.324 83.2441 140.946 84Z" fill="#3B1214"/>
<path d="M73.5348 129L14 163.487L15.4592 166L75 131.509C74.4837 130.691 73.9925 129.856 73.5348 129Z" fill="white"/>
<path d="M132 142.742L173.636 198L176 196.262L134.361 141C133.596 141.607 132.809 142.188 132 142.742Z" fill="white"/>
<path d="M139 137.186L191.058 183L193 180.807L140.95 135C140.329 135.754 139.674 136.479 139 137.186Z" fill="white"/>
<path d="M129 145.477L164.472 204L167 202.533L131.522 144C130.699 144.518 129.862 145.016 129 145.477Z" fill="white"/>
<path d="M136 139.982L182.852 191L185 189.013L138.152 138C137.46 138.688 136.739 139.346 136 139.982Z" fill="white"/>
<path d="M117 149.601L131.203 217L134 216.389L119.799 149C118.88 149.236 117.944 149.431 117 149.601Z" fill="white"/>
<path d="M121 147.902L142.254 214L145 213.086L123.75 147C122.849 147.337 121.929 147.631 121 147.902Z" fill="white"/>
<path d="M125 147.186L153.325 210L156 208.812L127.675 146C126.801 146.427 125.909 146.823 125 147.186Z" fill="white"/>
<path d="M149 118.937L216.423 133L217 130.063L149.576 116C149.419 116.992 149.225 117.97 149 118.937Z" fill="#3B1214"/>
<path d="M148 122.846L213.135 144L214 141.155L148.862 120C148.606 120.963 148.319 121.912 148 122.846Z" fill="#3B1214"/>
<path d="M112 150.303L119.886 219L123 218.69L115.114 150C114.088 150.136 113.049 150.235 112 150.303Z" fill="white"/>
<path d="M150 114.765L218.723 121L219 118.234L150.279 112C150.222 112.932 150.125 113.853 150 114.765Z" fill="#3B1214"/>
<path d="M144 130.58L204.555 165L206 162.423L145.441 128C144.988 128.878 144.512 129.74 144 130.58Z" fill="white"/>
<path d="M146 126.667L209.83 154L211 151.336L147.163 124C146.804 124.904 146.422 125.796 146 126.667Z" fill="#3B1214"/>
<path d="M68.9531 109.187C68.9531 108.789 68.9708 108.395 68.9801 108L0 108.749L0.0284613 112L69 111.251C68.9724 110.566 68.9531 109.879 68.9531 109.187Z" fill="white"/>
<path d="M142 134.352L198.307 174L200 171.646L143.697 132C143.159 132.805 142.594 133.589 142 134.352Z" fill="white"/>
<path d="M76.2614 132L20 172.636L21.7279 175L78 134.357C77.3956 133.59 76.81 132.809 76.2614 132Z" fill="white"/>
<path d="M71.8137 125L9 153.325L10.188 156L73 127.675C72.5728 126.801 72.1773 125.909 71.8137 125Z" fill="white"/>
<path d="M78.0538 135L27 181.804L28.9425 184L80 137.193C79.3269 136.485 78.6757 135.756 78.0538 135Z" fill="white"/>
<path d="M81.8071 139L35 190.058L37.1963 192L84 140.946C83.2443 140.324 82.5149 139.673 81.8071 139Z" fill="white"/>
<path d="M68.6851 113L1 120.312L1.32855 123L69 115.689C68.8582 114.804 68.7598 113.905 68.6851 113Z" fill="white"/>
<path d="M109.5 150.037C108.997 150.037 108.499 150.017 108 150V219H111V150C110.501 150.017 110.003 150.037 109.5 150.037Z" fill="white"/>
<path d="M69.3776 117L2 132.13L2.63405 135L70 119.873C69.7562 118.929 69.5546 117.969 69.3776 117Z" fill="white"/>
<path d="M70.1111 121L5 142.254L5.89991 145L71 123.75C70.6684 122.849 70.3785 121.93 70.1111 121Z" fill="white"/>
<path d="M84.6434 141L44 197.272L46.3643 199L87 142.739C86.191 142.19 85.4095 141.604 84.6434 141Z" fill="white"/>
<path d="M104.132 150L97 218.695L99.8674 219L107 150.299C106.034 150.233 105.078 150.133 104.132 150Z" fill="white"/>
<path d="M95.2335 148L74 213.105L76.7626 214L98 148.883C97.0652 148.617 96.1395 148.33 95.2335 148Z" fill="white"/>
<path d="M99.1788 149L85 216.395L87.8196 217L102 149.597C101.048 149.429 100.106 149.234 99.1788 149Z" fill="white"/>
<path d="M88.4108 144L53 203.547L55.592 205L91 145.458C90.1168 145.002 89.2537 144.516 88.4108 144Z" fill="white"/>
<path d="M91.3977 146L64 208.818L66.6007 210L94 147.178C93.117 146.815 92.2477 146.425 91.3977 146Z" fill="white"/>
</svg>
