<svg width="681" height="247" viewBox="0 0 681 247" fill="none" xmlns="http://www.w3.org/2000/svg">
<g clip-path="url(#clip0_923_2608)">
<path d="M123.591 77.8589C124.143 77.8589 124.69 77.8809 125.237 77.9004V0H121.943V77.9004C122.491 77.8809 123.038 77.8589 123.591 77.8589Z" fill="white"/>
<path d="M93.8764 88.8551L41.0458 31.5752L38.624 33.806L91.45 91.0805C92.2298 90.3083 93.0426 89.5703 93.8764 88.8551Z" fill="white"/>
<path d="M106.45 81.1946L74.6137 10.1011L71.6074 11.4459L103.443 82.5376C104.426 82.0539 105.428 81.6062 106.45 81.1946Z" fill="white"/>
<path d="M97.6586 85.9358L51.1126 23.4561L48.4707 25.4216L95.0192 87.9046C95.8745 87.218 96.7544 86.5617 97.6586 85.9358Z" fill="white"/>
<path d="M120.372 77.9844L112.076 0.526855L108.801 0.876817L117.097 78.3264C118.176 78.1727 119.269 78.0611 120.372 77.9844Z" fill="white"/>
<path d="M115.628 78.5646L99.2761 2.40283L96.0557 3.09351L112.405 79.2432C113.464 78.9768 114.541 78.7559 115.628 78.5646Z" fill="white"/>
<path d="M110.97 79.6386L86.7426 5.60645L83.6123 6.62963L107.835 80.6492C108.862 80.2721 109.91 79.9425 110.97 79.6386Z" fill="white"/>
<path d="M101.724 83.4229L61.9741 16.4331L59.1406 18.1121L98.898 85.1139C99.82 84.5202 100.758 83.9503 101.724 83.4229Z" fill="white"/>
<path d="M80.5392 108.258L6.18627 84.9121L5.19922 88.0523L79.5556 111.399C79.8472 110.336 80.1751 109.289 80.5392 108.258Z" fill="white"/>
<path d="M90.4763 92.0859L32.0413 40.5259L29.8613 42.9941L88.2871 94.5462C88.9848 93.6973 89.7202 92.8818 90.4763 92.0859Z" fill="white"/>
<path d="M82.3647 103.842L10.8653 72.8589L9.55469 75.8788L81.0623 106.865C81.464 105.841 81.8925 104.829 82.3647 103.842Z" fill="white"/>
<path d="M79.1857 112.839L2.79311 97.3872L2.13965 100.614L78.5326 116.065C78.7112 114.976 78.9311 113.901 79.1857 112.839Z" fill="white"/>
<path d="M84.6522 99.6459L16.7805 61.3613L15.1611 64.2278L83.0379 102.515C83.5443 101.539 84.0785 100.579 84.6522 99.6459Z" fill="white"/>
<path d="M78.3207 117.537L0.723576 110.149L0.411133 113.426L78.0052 120.814C78.0692 119.71 78.1794 118.619 78.3207 117.537Z" fill="white"/>
<path d="M87.368 95.7148L23.8639 50.5439L21.9541 53.2257L85.4541 98.3941C86.0602 97.4769 86.6982 96.5838 87.368 95.7148Z" fill="white"/>
<path d="M161.486 98.0197L224.538 52.2397L222.601 49.5762L159.538 95.3645C160.215 96.2279 160.872 97.1082 161.486 98.0197Z" fill="white"/>
<path d="M167.481 110.887L241.561 86.6761L240.538 83.5479L166.47 107.755C166.847 108.781 167.177 109.829 167.481 110.887Z" fill="white"/>
<path d="M163.902 102.042L231.322 62.9693L229.67 60.1221L162.242 99.1979C162.827 100.125 163.383 101.071 163.902 102.042Z" fill="white"/>
<path d="M165.924 106.371L237.064 74.5546L235.718 71.5503L164.58 103.365C165.064 104.347 165.512 105.349 165.924 106.371Z" fill="white"/>
<path d="M168.494 115.191L244.574 98.2542L243.858 95.0415L167.791 111.975C168.066 113.031 168.293 114.106 168.494 115.191Z" fill="white"/>
<path d="M169.262 123.5C169.262 123.904 169.242 124.301 169.232 124.702L247.182 123.944L247.15 120.652L169.209 121.41C169.241 122.104 169.262 122.799 169.262 123.5Z" fill="white"/>
<path d="M169.109 119.928L246.551 111.031L246.175 107.76L168.749 116.655C168.911 117.733 169.024 118.827 169.109 119.928Z" fill="white"/>
<path d="M155.347 90.714L207.506 32.8231L205.059 30.6206L152.903 88.5074C153.745 89.2125 154.558 89.9508 155.347 90.714Z" fill="white"/>
<path d="M143.661 82.4975L175.36 11.3465L172.351 10.0073L140.65 81.1624C141.672 81.574 142.678 82.0159 143.661 82.4975Z" fill="white"/>
<path d="M139.265 80.6187L163.346 6.55379L160.213 5.53613L136.128 79.6145C137.188 79.9165 138.238 80.2437 139.265 80.6187Z" fill="white"/>
<path d="M134.692 79.2238L150.896 3.04114L147.674 2.35693L131.468 78.5493C132.555 78.7385 133.632 78.9592 134.692 79.2238Z" fill="white"/>
<path d="M151.744 87.5763L197.562 24.5543L194.896 22.6191L149.087 85.629C149.999 86.2437 150.88 86.8993 151.744 87.5763Z" fill="white"/>
<path d="M129.999 78.3155L138.146 0.849316L134.871 0.504883L126.723 77.9777C127.826 78.0527 128.918 78.1653 129.999 78.3155Z" fill="white"/>
<path d="M147.835 84.8267L186.807 17.369L183.954 15.7231L144.985 83.1756C145.957 83.6918 146.907 84.2421 147.835 84.8267Z" fill="white"/>
<path d="M158.606 94.207L216.531 42.0854L214.327 39.6396L156.397 91.7649C157.162 92.553 157.9 93.3654 158.606 94.207Z" fill="white"/>
<path d="M83.2799 144.959L15.8594 184.031L17.5118 186.879L84.9392 147.802C84.3541 146.875 83.7982 145.929 83.2799 144.959Z" fill="white"/>
<path d="M149.522 161.065L196.069 223.544L198.711 221.578L152.162 159.096C151.307 159.782 150.427 160.439 149.522 161.065Z" fill="white"/>
<path d="M156.705 154.914L215.14 206.474L217.32 204.006L158.894 152.454C158.197 153.303 157.461 154.118 156.705 154.914Z" fill="white"/>
<path d="M145.457 163.577L185.207 230.567L188.041 228.888L148.284 161.886C147.361 162.48 146.423 163.05 145.457 163.577Z" fill="white"/>
<path d="M153.305 158.145L206.136 215.425L208.558 213.194L155.732 155.92C154.951 156.692 154.138 157.43 153.305 158.145Z" fill="white"/>
<path d="M131.554 168.436L147.905 244.597L151.126 243.907L134.777 167.757C133.718 168.024 132.641 168.244 131.554 168.436Z" fill="white"/>
<path d="M136.212 167.362L160.439 241.394L163.569 240.371L139.346 166.351C138.32 166.728 137.272 167.058 136.212 167.362Z" fill="white"/>
<path d="M140.732 165.805L172.569 236.899L175.575 235.554L143.74 164.462C142.757 164.946 141.754 165.394 140.732 165.805Z" fill="white"/>
<path d="M167.996 134.161L244.389 149.613L245.042 146.386L168.649 130.935C168.471 132.024 168.251 133.099 167.996 134.161Z" fill="white"/>
<path d="M166.643 138.743L240.995 162.088L241.982 158.947L167.626 135.601C167.334 136.664 167.006 137.712 166.643 138.743Z" fill="white"/>
<path d="M126.81 169.016L135.106 246.474L138.382 246.124L130.086 168.674C129.006 168.828 127.913 168.939 126.81 169.016Z" fill="white"/>
<path d="M168.861 129.463L246.458 136.851L246.771 133.574L169.177 126.187C169.113 127.29 169.003 128.382 168.861 129.463Z" fill="white"/>
<path d="M162.529 147.355L230.401 185.639L232.02 182.773L164.144 144.485C163.637 145.462 163.103 146.421 162.529 147.355Z" fill="white"/>
<path d="M164.816 143.158L236.316 174.141L237.626 171.122L166.119 140.135C165.717 141.16 165.289 142.171 164.816 143.158Z" fill="white"/>
<path d="M77.9197 123.5C77.9197 123.097 77.9398 122.699 77.9502 122.298L0 123.057L0.0321418 126.349L77.973 125.59C77.9414 124.897 77.9197 124.201 77.9197 123.5Z" fill="white"/>
<path d="M159.813 151.285L223.318 196.456L225.227 193.775L161.727 148.606C161.121 149.523 160.483 150.416 159.813 151.285Z" fill="white"/>
<path d="M85.6954 148.98L22.6445 194.76L24.581 197.423L87.6442 151.636C86.9665 150.772 86.3103 149.891 85.6954 148.98Z" fill="white"/>
<path d="M81.258 140.63L10.1182 172.446L11.4639 175.45L82.6019 143.635C82.1178 142.653 81.6699 141.651 81.258 140.63Z" fill="white"/>
<path d="M88.5749 152.793L30.6504 204.915L32.8543 207.361L90.7829 155.236C90.0193 154.447 89.2805 153.635 88.5749 152.793Z" fill="white"/>
<path d="M91.8349 156.287L39.6758 214.178L42.1232 216.38L94.2786 158.493C93.4365 157.788 92.6237 157.05 91.8349 156.287Z" fill="white"/>
<path d="M78.0723 127.073L0.630859 135.97L1.00679 139.24L78.4326 130.345C78.2704 129.267 78.1577 128.174 78.0723 127.073Z" fill="white"/>
<path d="M123.591 169.141C123.038 169.141 122.491 169.119 121.943 169.1V247H125.237V169.1C124.69 169.119 124.143 169.141 123.591 169.141Z" fill="white"/>
<path d="M78.6885 131.81L2.6084 148.746L3.3244 151.959L79.3911 135.025C79.1161 133.969 78.8883 132.894 78.6885 131.81Z" fill="white"/>
<path d="M79.7005 136.113L5.62012 160.324L6.64397 163.453L80.7119 139.246C80.3346 138.22 80.0047 137.172 79.7005 136.113Z" fill="white"/>
<path d="M95.4376 159.424L49.6191 222.446L52.2845 224.381L98.0943 161.371C97.1822 160.756 96.3013 160.101 95.4376 159.424Z" fill="white"/>
<path d="M117.182 168.685L109.035 246.151L112.311 246.496L120.459 169.023C119.356 168.948 118.264 168.835 117.182 168.685Z" fill="white"/>
<path d="M107.917 166.382L83.8359 240.447L86.969 241.465L111.054 167.386C109.994 167.084 108.944 166.757 107.917 166.382Z" fill="white"/>
<path d="M112.489 167.777L96.2852 243.96L99.5074 244.644L115.713 168.451C114.626 168.262 113.549 168.041 112.489 167.777Z" fill="white"/>
<path d="M99.3463 162.173L60.374 229.632L63.2265 231.277L102.196 163.824C101.224 163.308 100.274 162.758 99.3463 162.173Z" fill="white"/>
<path d="M103.521 164.502L71.8223 235.653L74.8313 236.992L106.532 165.837C105.51 165.426 104.504 164.984 103.521 164.502Z" fill="white"/>
<path d="M286.139 107.44L293.625 74.9783H293.752L311.389 108.202C313.462 109.125 315.72 109.558 317.987 109.468C326.996 109.468 333.595 103.51 333.595 95.3944C333.595 89.3074 330.295 84.1073 322.936 80.1778L308.471 72.3145C296.67 65.8485 289.692 57.2249 289.692 44.42C289.692 28.5681 301.365 16.1421 322.047 16.1421C331.944 16.1421 340.954 17.5374 350.851 21.721L343.365 49.7448H343.238L326.489 19.693C324.466 19.1282 322.37 18.872 320.27 18.933C313.8 18.933 308.216 23.6226 308.216 30.5967C308.216 36.1779 311.389 41.1215 320.779 46.7027L337.401 56.7193C348.059 63.0582 354.149 70.7947 354.149 82.3336C354.149 99.8324 339.43 112.513 318.241 112.513C307.338 112.542 296.501 110.829 286.139 107.44Z" fill="white"/>
<path d="M361.761 77.8961C361.761 59.762 375.972 45.3076 396.654 45.3076C417.591 45.3076 432.69 57.9877 432.69 77.8961C432.69 96.4093 420.889 111.245 396.782 111.245C378.509 111.245 361.761 98.3105 361.761 77.8961ZM416.196 100.212C416.196 89.5622 394.878 49.8724 383.713 49.8724C380.54 49.8724 378.637 52.1547 378.637 56.0843C378.637 68.5122 400.588 106.68 410.992 106.68C414.419 106.68 416.196 104.525 416.196 100.212Z" fill="white"/>
<path d="M515.798 107.948V109.976H484.077V100.212C475.703 106.299 468.47 111.372 461.364 111.372C449.945 111.372 444.996 104.777 444.996 89.687V62.4255L437.764 56.2114L470.373 44.7994V84.6162C470.373 95.2681 471.261 99.4517 477.605 99.4517C479.818 99.3873 482.004 98.9588 484.077 98.1835V61.7925L476.845 55.5784L509.453 44.1665V107.948H515.798Z" fill="white"/>
<path d="M599.159 107.948V109.976H562.363V107.948H567.438V69.7804C567.438 59.8887 565.027 56.5921 559.825 56.5921C557.181 56.6813 554.586 57.3293 552.211 58.4934V107.948H557.286V109.976H520.49V107.948H526.835V61.665L519.602 55.4509L552.211 44.0391V56.7192C560.459 49.6179 567.818 44.672 576.446 44.672C587.232 44.672 592.815 51.3944 592.815 64.3263V107.948H599.159Z" fill="white"/>
<path d="M681 107.948V109.976H649.278V99.9597C642.553 106.807 634.686 111.245 627.2 111.245C614.258 111.245 604.614 100.72 604.614 81.1925C604.614 60.1429 616.669 45.3074 634.053 45.3074C639.498 45.2102 644.833 46.854 649.278 49.9992V32.5005L642.046 26.2864L674.656 14.8745V107.948H681ZM649.278 98.1833V52.1546C647.448 50.9026 645.279 50.2393 643.061 50.2533C636.462 50.2533 631.769 58.2417 631.769 73.9642C631.769 90.955 635.448 99.4514 643.95 99.4514C645.795 99.4083 647.611 98.9762 649.278 98.1833Z" fill="white"/>
<path d="M424.697 128.076L413.405 134.923L380.795 221.911H374.198L354.53 161.298L331.691 221.911H325.093L291.723 134.923L281.698 128.076H334.863L321.667 134.923L341.461 189.322L351.358 151.66L344.633 131.119L372.294 126.173L391.2 188.053L403.763 134.923L388.663 128.076H424.697Z" fill="white"/>
<path d="M504.507 217.346V219.374H467.711V217.346H472.786V179.178C472.786 169.287 470.376 165.99 465.173 165.99C462.53 166.079 459.935 166.727 457.56 167.891V217.346H462.635V219.374H425.839V217.346H432.183V141.898L424.95 135.684L457.56 124.272V166.117C465.808 159.016 473.167 154.07 481.795 154.07C492.581 154.07 498.163 160.792 498.163 173.724V217.346H504.507Z" fill="white"/>
<path d="M568.204 207.962C562.874 216.077 554.373 220.642 542.573 220.642C524.682 220.642 509.963 208.216 509.963 188.562C509.963 170.049 522.398 154.705 542.7 154.705C554.627 154.705 562.874 161.679 562.874 170.936C562.874 181.461 554.754 190.717 539.527 196.423C546.76 203.524 555.896 208.216 564.397 208.216C565.633 208.222 566.867 208.094 568.077 207.835L568.204 207.962ZM525.697 166.625C525.697 177.148 531.153 187.8 538.767 195.661C542.32 191.096 543.715 186.025 543.715 179.557C543.715 168.526 536.356 159.143 530.899 159.143C527.6 159.143 525.697 161.933 525.697 166.625Z" fill="white"/>
<path d="M629.617 207.962C624.287 216.077 615.787 220.642 603.986 220.642C586.095 220.642 571.376 208.216 571.376 188.562C571.376 170.049 583.811 154.705 604.113 154.705C616.04 154.705 624.287 161.679 624.287 170.936C624.287 181.461 616.167 190.717 600.94 196.423C608.173 203.524 617.309 208.216 625.81 208.216C627.046 208.222 628.28 208.094 629.49 207.835L629.617 207.962ZM587.11 166.625C587.11 177.148 592.566 187.8 600.18 195.661C603.733 191.096 605.128 186.025 605.128 179.557C605.128 168.526 597.769 159.143 592.312 159.143C589.014 159.143 587.11 161.933 587.11 166.625Z" fill="white"/>
<path d="M633.295 217.346H639.639V141.898L632.406 135.684L665.016 124.272V217.346H671.36V219.374H633.295V217.346Z" fill="white"/>
</g>
<defs>
<clipPath id="clip0_923_2608">
<rect width="681" height="247" fill="white"/>
</clipPath>
</defs>
</svg>
