<svg width="284" height="84" viewBox="0 0 284 84" fill="none" xmlns="http://www.w3.org/2000/svg">
<path d="M277.124 1.16666H5.79591C3.23512 1.16666 1.15918 3.256 1.15918 5.83333V78.1667C1.15918 80.744 3.23512 82.8333 5.79591 82.8333H277.124C279.685 82.8333 281.76 80.744 281.76 78.1667V5.83333C281.76 3.256 279.685 1.16666 277.124 1.16666Z" stroke="white" stroke-width="2"/>
<path d="M101.564 21.9981C101.564 23.6055 101.164 25.0121 100.166 26.0167C98.9683 27.2222 97.5709 27.825 95.7742 27.825C93.9775 27.825 92.58 27.2222 91.3822 26.0167C90.1844 24.811 89.5854 23.4046 89.5854 21.5963C89.5854 19.788 90.1844 18.3815 91.3822 17.1759C92.58 15.9704 93.9775 15.3676 95.7742 15.3676C96.5728 15.3676 97.3713 15.5685 98.1698 15.9704C98.9683 16.3722 99.5673 16.7741 99.9665 17.3768L98.9683 18.3814C98.1698 17.3768 97.1716 16.975 95.7742 16.975C94.5763 16.975 93.3785 17.3768 92.58 18.3814C91.5818 19.1851 91.1826 20.3908 91.1826 21.7972C91.1826 23.2037 91.5818 24.4092 92.58 25.213C93.5781 26.0167 94.5763 26.6194 95.7742 26.6194C97.1716 26.6194 98.1698 26.2176 99.1681 25.213C99.7669 24.6101 100.166 23.8064 100.166 22.8018H95.7742V21.3954H101.564C101.564 21.3954 101.564 21.5963 101.564 21.9981Z" fill="white" stroke="white" stroke-width="0.2" stroke-miterlimit="10"/>
<path d="M110.748 16.975H105.358V20.7926H110.348V22.1991H105.358V26.0167H110.748V27.4231H103.76V15.3676H110.748V16.975Z" fill="white" stroke="white" stroke-width="0.2" stroke-miterlimit="10"/>
<path d="M117.336 27.4231H115.739V16.7741H112.345V15.3676H120.729V16.7741H117.336V27.4231Z" fill="white" stroke="white" stroke-width="0.2" stroke-miterlimit="10"/>
<path d="M126.519 27.4231V15.3676H128.115V27.4231H126.519Z" fill="white" stroke="white" stroke-width="0.2" stroke-miterlimit="10"/>
<path d="M134.903 27.4231H133.307V16.7741H129.913V15.3676H138.098V16.7741H134.704V27.4231H134.903Z" fill="white" stroke="white" stroke-width="0.2" stroke-miterlimit="10"/>
<path d="M153.869 26.0167C152.671 27.2222 151.273 27.825 149.477 27.825C147.68 27.825 146.283 27.2222 145.085 26.0167C143.887 24.811 143.288 23.4046 143.288 21.5963C143.288 19.788 143.887 18.3815 145.085 17.1759C146.283 15.9704 147.68 15.3676 149.477 15.3676C151.273 15.3676 152.671 15.9704 153.869 17.1759C155.066 18.3815 155.666 19.788 155.666 21.5963C155.666 23.2037 155.066 24.811 153.869 26.0167ZM146.283 25.0121C147.082 25.8158 148.279 26.4185 149.477 26.4185C150.675 26.4185 151.873 26.0167 152.671 25.0121C153.47 24.2083 154.068 23.0028 154.068 21.5963C154.068 20.1898 153.669 18.9842 152.671 18.1805C151.873 17.3768 150.675 16.7741 149.477 16.7741C148.279 16.7741 147.082 17.1759 146.283 18.1805C145.484 18.9842 144.885 20.1898 144.885 21.5963C144.885 22.8018 145.285 24.0074 146.283 25.0121Z" fill="white" stroke="white" stroke-width="0.2" stroke-miterlimit="10"/>
<path d="M157.862 27.4231V15.3676H159.659L165.448 24.811V22.4V15.3676H167.045V27.4231H165.448L159.259 17.5778V19.9889V27.4231H157.862Z" fill="white" stroke="white" stroke-width="0.2" stroke-miterlimit="10"/>
<path d="M142.888 45.1045C138.097 45.1045 134.304 48.7212 134.304 53.7444C134.304 58.5665 138.097 62.3841 142.888 62.3841C147.679 62.3841 151.473 58.7674 151.473 53.7444C151.473 48.7212 147.679 45.1045 142.888 45.1045ZM142.888 58.7674C140.293 58.7674 138.097 56.5573 138.097 53.5435C138.097 50.5295 140.293 48.3194 142.888 48.3194C145.483 48.3194 147.679 50.3286 147.679 53.5435C147.679 56.7582 145.483 58.7674 142.888 58.7674ZM124.321 45.1045C119.53 45.1045 115.737 48.7212 115.737 53.7444C115.737 58.5665 119.53 62.3841 124.321 62.3841C129.113 62.3841 132.906 58.7674 132.906 53.7444C132.906 48.7212 129.113 45.1045 124.321 45.1045ZM124.321 58.7674C121.727 58.7674 119.53 56.5573 119.53 53.5435C119.53 50.5295 121.727 48.3194 124.321 48.3194C126.917 48.3194 129.113 50.3286 129.113 53.5435C129.113 56.7582 126.917 58.7674 124.321 58.7674ZM102.162 47.7165V51.3332H110.747C110.547 53.3426 109.748 54.9499 108.75 55.9545C107.552 57.16 105.556 58.5665 102.162 58.5665C96.772 58.5665 92.7792 54.3471 92.7792 48.9222C92.7792 43.4972 96.9716 39.2777 102.162 39.2777C104.957 39.2777 107.153 40.4832 108.75 41.8897L111.345 39.2777C109.149 37.2685 106.354 35.661 102.362 35.661C95.1749 35.661 88.9861 41.6888 88.9861 48.9222C88.9861 56.1554 95.1749 62.1832 102.362 62.1832C106.354 62.1832 109.149 60.9777 111.545 58.3656C113.941 55.9545 114.739 52.5387 114.739 49.9268C114.739 49.1231 114.739 48.3194 114.54 47.7165H102.162ZM192.798 50.5295C191.999 48.5203 190.002 45.1045 185.611 45.1045C181.219 45.1045 177.625 48.5203 177.625 53.7444C177.625 58.5665 181.219 62.3841 186.01 62.3841C189.802 62.3841 192.199 59.9731 192.997 58.5665L190.202 56.5573C189.204 57.9637 188.006 58.9683 186.01 58.9683C184.014 58.9683 182.815 58.1647 181.817 56.3564L193.197 51.5341L192.798 50.5295ZM181.219 53.3426C181.219 50.1277 183.814 48.3194 185.611 48.3194C187.008 48.3194 188.406 49.1231 188.804 50.1277L181.219 53.3426ZM171.835 61.5804H175.628V36.4647H171.835V61.5804ZM165.847 46.9128C164.848 45.9082 163.251 44.9036 161.254 44.9036C157.063 44.9036 153.069 48.7212 153.069 53.5435C153.069 58.3656 156.863 61.9823 161.254 61.9823C163.251 61.9823 164.848 60.9777 165.646 59.9731H165.847V61.1786C165.847 64.3933 164.05 66.2017 161.254 66.2017C159.059 66.2017 157.461 64.5944 157.063 63.1878L153.868 64.5944C154.866 66.8045 157.262 69.6174 161.455 69.6174C165.847 69.6174 169.44 67.0054 169.44 60.7768V45.5064H165.847V46.9128ZM161.455 58.7674C158.859 58.7674 156.663 56.5573 156.663 53.5435C156.663 50.5295 158.859 48.3194 161.455 48.3194C164.05 48.3194 166.046 50.5295 166.046 53.5435C166.046 56.5573 164.05 58.7674 161.455 58.7674ZM210.166 36.4647H201.182V61.5804H204.975V52.1369H210.166C214.357 52.1369 218.351 49.1231 218.351 44.3009C218.351 39.4786 214.357 36.4647 210.166 36.4647ZM210.365 48.7212H204.975V40.0814H210.365C213.16 40.0814 214.757 42.4926 214.757 44.3009C214.558 46.3101 212.961 48.7212 210.365 48.7212ZM233.324 45.1045C230.528 45.1045 227.733 46.3101 226.735 48.9222L230.129 50.3286C230.928 48.9222 232.125 48.5203 233.523 48.5203C235.52 48.5203 237.316 49.7259 237.516 51.7351V51.936C236.918 51.5341 235.32 50.9314 233.723 50.9314C230.129 50.9314 226.536 52.9406 226.536 56.5573C226.536 59.9731 229.53 62.1832 232.725 62.1832C235.32 62.1832 236.518 60.9777 237.516 59.7722H237.715V61.7814H241.309V52.1369C240.91 47.5156 237.516 45.1045 233.324 45.1045ZM232.924 58.7674C231.727 58.7674 229.93 58.1647 229.93 56.5573C229.93 54.5481 232.125 53.9453 233.922 53.9453C235.52 53.9453 236.318 54.3472 237.316 54.749C236.918 57.1601 234.92 58.7674 232.924 58.7674ZM253.886 45.5064L249.694 56.3564H249.495L245.103 45.5064H241.109L247.698 60.7768L243.904 69.2156H247.698L257.879 45.5064H253.886ZM220.347 61.5804H224.14V36.4647H220.347V61.5804Z" fill="white"/>
<path d="M26.6997 66.6036C25.9012 66.2018 25.502 65.1972 25.502 64.1926C25.502 63.9916 25.502 63.5897 25.502 63.3888C25.502 48.5204 25.502 33.6518 25.502 18.9842C25.502 18.1805 25.7016 17.5778 25.9012 16.7741C26.1009 16.3722 26.5001 15.9704 26.8995 15.5686C35.4838 24.2083 43.8685 32.8481 52.2533 41.4879C43.6689 49.5249 35.2842 57.9638 26.6997 66.6036Z" fill="white"/>
<path d="M60.6376 32.6472C58.2419 35.0583 55.6467 37.4694 53.2511 40.0814C45.2656 31.8435 37.0805 23.6055 29.095 15.3676C29.095 15.3676 29.095 15.1667 29.2946 15.1667C39.6758 20.9935 50.0568 26.8204 60.6376 32.6472Z" fill="white"/>
<path d="M29.095 66.6036C37.0805 58.5666 45.2656 50.5296 53.2511 42.4926C55.447 44.7027 57.8427 46.913 60.438 49.324C50.0568 55.1509 39.6758 60.9777 29.2946 66.6036H29.095Z" fill="white"/>
<path d="M61.8364 48.5203C59.2411 46.1092 56.8455 43.6981 54.2502 41.287C56.8455 38.675 59.4408 36.0629 62.036 33.4509C62.8346 33.8527 63.6331 34.2546 64.4317 34.8573C66.428 36.0629 68.6241 37.0676 70.6205 38.2731C71.2194 38.474 71.6186 38.8759 72.0179 39.4786C72.8164 40.4832 72.8164 41.4879 72.0179 42.4926C71.6186 42.8944 71.2194 43.2963 70.6205 43.4972C67.8256 45.3055 64.831 46.9129 61.8364 48.5203Z" fill="white"/>
</svg>
