<svg width="314" height="167" viewBox="0 0 314 167" fill="none" xmlns="http://www.w3.org/2000/svg">
<path d="M85.7646 139.52L95.6035 96.6045L83.7773 91.0742H112L103.155 96.6045L77.6152 166.865H72.4482L57.043 117.908L39.1562 166.865H33.9873L7.85156 96.6045L0 91.0742H41.6396L31.3047 96.6045L46.8076 140.544L54.5596 110.124L49.292 93.5322L70.957 89.5371L85.7646 139.52ZM205.294 112.939C214.509 112.939 220.882 118.535 220.882 125.963C220.882 134.408 214.608 141.836 202.843 146.415C208.431 152.113 215.49 155.878 222.059 155.878C223.014 155.882 223.967 155.779 224.901 155.571L225 155.674C220.882 162.186 214.314 165.849 205.196 165.849C191.373 165.849 180 155.877 180 140.106C180 125.251 189.608 112.94 205.294 112.939ZM253.418 112.939C263.043 112.939 269.699 118.535 269.699 125.963C269.699 134.408 263.146 141.836 250.858 146.415C256.695 152.113 264.068 155.878 270.928 155.878C271.926 155.882 272.922 155.779 273.897 155.571L274 155.674C269.699 162.186 262.839 165.849 253.316 165.849C238.879 165.849 227 155.877 227 140.106C227 125.251 237.035 112.94 253.418 112.939ZM138.413 121.648C144.841 116.026 150.576 112.111 157.3 112.111C165.706 112.111 170.056 117.433 170.056 127.672V162.207H175V163.813H146.324V162.207H150.279V131.989C150.279 124.158 148.4 121.548 144.347 121.548C142.286 121.618 140.264 122.132 138.413 123.054V162.207H142.368V163.813H113.692V162.207H118.637V102.475L113 97.5547L138.413 88.5195V121.648ZM301.951 162.207H307V163.813H276.707V162.207H281.756V102.475L276 97.5547L301.951 88.5195V162.207ZM196.177 116.5C193.628 116.5 192.157 118.739 192.157 122.504C192.157 130.947 196.373 139.495 202.256 145.803C205.001 142.14 206.078 138.071 206.078 132.881C206.078 124.03 200.393 116.5 196.177 116.5ZM243.896 116.5C241.234 116.5 239.697 118.739 239.697 122.504C239.697 130.947 244.1 139.495 250.244 145.803C253.111 142.14 254.237 138.071 254.237 132.881C254.237 124.03 248.299 116.5 243.896 116.5ZM309.101 75.666H314V77.3154H289.498V69.1719C284.304 74.7383 278.227 78.3456 272.445 78.3457C262.449 78.3457 255 69.7898 255 53.915C255 36.8024 264.312 24.7412 277.738 24.7412C281.944 24.6622 286.065 25.9987 289.498 28.5557V14.3291L283.912 9.27734L309.101 0V75.666ZM90.0576 24.418C106.292 24.4181 118 34.7884 118 51.0703C118 66.2111 108.85 78.3445 90.1562 78.3447C75.9878 78.3447 63 67.7662 63 51.0703C63.0001 36.2394 74.0204 24.418 90.0576 24.418ZM179.041 75.5449H184V77.2031H159.203V69.2207C152.657 74.1971 147.003 78.3447 141.448 78.3447C132.522 78.3446 128.653 72.9525 128.653 60.6162V38.3281L123 33.248L148.492 23.918V56.4707C148.492 65.1787 149.186 68.5985 154.145 68.5986C155.874 68.546 157.583 68.1963 159.203 67.5625V37.8105L153.551 32.7305L179.041 23.4004V75.5449ZM30.9834 2.0332C38.696 2.03324 45.717 3.13844 53.4297 6.45117L47.5957 28.6416H47.4961L34.4443 4.84473C32.8682 4.39748 31.2345 4.19482 29.5986 4.24316C24.5563 4.24317 20.2051 7.95701 20.2051 13.4795C20.2053 17.8987 22.6781 21.8132 29.9951 26.2324L42.9482 34.1641C51.2542 39.1834 55.9998 45.3096 56 54.4463C56 68.3028 44.5292 78.3438 28.0166 78.3438C19.5203 78.3666 11.0749 77.0109 3 74.3271L8.83398 48.6221H8.93262L22.6777 74.9307C24.2928 75.6615 26.0525 76.004 27.8193 75.9326C34.8401 75.9324 39.9824 71.2152 39.9824 64.7891C39.9824 59.9691 37.4104 55.8518 31.6758 52.7402L20.4033 46.5127C11.2073 41.3925 5.76855 34.5643 5.76855 24.4248C5.76863 11.8726 14.8663 2.0332 30.9834 2.0332ZM212.823 33.7705C219.354 27.9628 225.182 23.918 232.015 23.918C240.556 23.9181 244.977 29.416 244.977 39.9922V75.668H250V77.3271H220.861V75.668H224.881V44.4531C224.881 36.3634 222.972 33.6672 218.853 33.667C216.759 33.7399 214.704 34.2696 212.823 35.2217V75.668H216.842V77.3271H187.704V75.668H192.728V37.8154L187 32.7334L212.823 23.4004V33.7705ZM80.0225 28.1514C77.5624 28.1514 76.086 30.0178 76.0859 33.2314C76.0859 43.3958 93.1068 74.6105 101.175 74.6113C103.832 74.6113 105.21 72.8485 105.21 69.3213C105.21 60.6117 88.6802 28.1522 80.0225 28.1514ZM284.696 28.7617C279.6 28.7617 275.974 35.2563 275.974 48.0381C275.974 61.851 278.816 68.7588 285.383 68.7588C286.808 68.7237 288.211 68.3721 289.498 67.7275V30.3076C288.085 29.2899 286.409 28.7504 284.696 28.7617Z" fill="#3B1214"/>
</svg>
