<svg width="438" height="98" viewBox="0 0 438 98" fill="none" xmlns="http://www.w3.org/2000/svg">
<path d="M53.1678 68.6593C42.4434 68.6593 34.8091 63.8389 32.0826 56.199C31.1737 53.8343 30.7193 51.2876 30.7193 48.4682C30.7193 45.6487 31.1737 43.102 32.0826 40.7373C34.8091 33.0974 42.4434 28.277 53.1678 28.277C63.8922 28.277 71.6174 33.0974 74.3439 40.7373C75.2527 43.102 75.7072 45.6487 75.7072 48.4682C75.7072 51.2876 75.2527 53.8343 74.3439 56.199C71.5265 63.9299 63.8922 68.6593 53.1678 68.6593ZM11.9971 48.4682C11.9971 52.9248 12.6333 57.0176 13.9965 60.6556C18.9043 74.3893 33.1732 82.302 52.986 82.302H93.6114V64.2027L70.9812 70.1146V67.9317C76.5251 66.7494 80.9785 65.1122 84.523 62.8385C91.4302 58.6547 93.6114 52.561 93.6114 43.5568C93.6114 22.8199 71.7991 14.6343 52.8951 14.6343C32.9914 14.6343 18.9043 22.638 13.9965 36.2807C12.6333 39.9187 11.9971 44.0115 11.9971 48.4682Z" fill="#38171A"/>
<path d="M117.377 84.0297C126.829 84.0297 132.827 79.3003 136.099 69.8413H137.917L134.463 82.3016H151.368V37.2808H134.463V59.7457C134.463 66.9309 130.555 71.2965 123.83 71.2965C117.831 71.2965 114.923 68.0223 114.923 62.1105V37.2808H98.0186V64.748C98.0186 77.2993 104.471 84.0297 117.377 84.0297Z" fill="#38171A"/>
<path d="M236.036 84.0297C245.488 84.0297 251.487 79.3003 254.758 69.8413H256.576L253.122 82.3016H270.027V37.2808H253.122V59.7457C253.122 66.9309 249.214 71.2965 242.489 71.2965C236.491 71.2965 233.582 68.0223 233.582 62.1105V37.2808H216.678V64.748C216.678 77.2993 223.131 84.0297 236.036 84.0297Z" fill="#38171A"/>
<path d="M185.014 84.0298C199.737 84.0298 210.189 77.7541 212.279 68.2952H195.466C193.739 71.5694 190.103 73.3885 184.741 73.3885C179.742 73.3885 176.107 71.9333 174.199 69.1138C173.108 67.6585 172.472 65.6576 172.108 63.2929H212.097V59.7458C212.097 44.375 202.1 35.5527 184.378 35.5527C173.29 35.5527 164.565 39.1908 159.93 45.8302C157.476 49.5592 155.84 54.2887 155.84 59.9277C155.84 65.5667 157.203 70.1142 159.748 73.7523C164.383 80.3917 173.199 84.0298 185.014 84.0298ZM172.381 54.7435C172.744 53.0154 173.29 51.5602 174.108 50.3778C176.107 47.4674 179.833 45.9212 184.468 45.9212C191.739 45.9212 195.556 49.1045 195.92 54.7435H172.381Z" fill="#38171A"/>
<path d="M303.673 84.0298C318.396 84.0298 328.848 77.7541 330.938 68.2952H314.125C312.398 71.5694 308.763 73.3885 303.4 73.3885C298.402 73.3885 294.766 71.9333 292.858 69.1138C291.767 67.6585 291.131 65.6576 290.767 63.2929H330.757V59.7458C330.757 44.375 320.759 35.5527 303.037 35.5527C291.949 35.5527 283.224 39.1908 278.589 45.8302C276.135 49.5592 274.499 54.2887 274.499 59.9277C274.499 65.5667 275.862 70.1142 278.407 73.7523C283.042 80.3917 291.858 84.0298 303.673 84.0298ZM291.04 54.7435C291.404 53.0154 291.949 51.5602 292.767 50.3778C294.766 47.4674 298.493 45.9212 303.128 45.9212C310.398 45.9212 314.216 49.1045 314.579 54.7435H291.04Z" fill="#38171A"/>
<path d="M349.533 70.2051C355.35 70.2051 360.257 65.3847 360.257 59.5638C360.257 53.7429 355.35 48.8315 349.533 48.8315C343.716 48.8315 338.899 53.7429 338.899 59.5638C338.899 65.3847 343.716 70.2051 349.533 70.2051Z" fill="#38171A"/>
<path d="M368.5 37.3355V82.3564H385.405V37.3355H368.5ZM368.228 33.1518H385.677V21.3281H368.228V33.1518Z" fill="#38171A"/>
<path d="M390.131 25.4116V64.7026C390.131 78.1634 398.492 84.0752 409.398 84.0752C413.034 84.0752 416.124 83.8933 419.487 83.3476V71.5239C417.942 71.7968 416.124 71.7968 415.033 71.7968C409.762 71.7968 407.035 68.4316 407.035 62.5197V47.8766H419.759V37.5991H407.035V25.4116H390.131Z" fill="#38171A"/>
</svg>
